<?xml version="1.0" encoding="UTF-8" standalone="no"?>
<!-- Created with Inkscape (http://www.inkscape.org/) -->

<svg
   width="210mm"
   height="195.98817mm"
   viewBox="0 0 210 195.98817"
   version="1.1"
   id="svg1"
   xml:space="preserve"
   inkscape:version="1.4 (86a8ad7, 2024-10-11)"
   sodipodi:docname="tornhole.svg"
   xmlns:inkscape="http://www.inkscape.org/namespaces/inkscape"
   xmlns:sodipodi="http://sodipodi.sourceforge.net/DTD/sodipodi-0.dtd"
   xmlns="http://www.w3.org/2000/svg"
   xmlns:svg="http://www.w3.org/2000/svg"><sodipodi:namedview
     id="namedview1"
     pagecolor="#ffffff"
     bordercolor="#000000"
     borderopacity="0.25"
     inkscape:showpageshadow="2"
     inkscape:pageopacity="0.0"
     inkscape:pagecheckerboard="0"
     inkscape:deskcolor="#d1d1d1"
     inkscape:document-units="mm"
     inkscape:zoom="2"
     inkscape:cx="523.5"
     inkscape:cy="316.5"
     inkscape:window-width="3840"
     inkscape:window-height="2126"
     inkscape:window-x="-11"
     inkscape:window-y="-11"
     inkscape:window-maximized="1"
     inkscape:current-layer="g21" /><defs
     id="defs1" /><g
     inkscape:label="Layer 1"
     inkscape:groupmode="layer"
     id="layer1"><g
       id="g21"
       transform="matrix(0.26458333,0,0,0.26458333,47.889584,110.33125)"><path
   id="polygon17"
   style="fill:#000000;fill-opacity:1;stroke-width:2.68142"
   d="m -181,-417.00001 v 740.74272 h 793.70079 v -740.07236 -0.67036 z m 389.46599,184.34773 h 1.30931 l 3.48269,2.11581 3.71838,-1.39831 3.87025,0.70701 3.78124,-0.61799 3.80217,0.89554 2.08961,-1.70206 h 4.12164 l 1.37739,0.89555 3.79692,0.21478 4.48302,4.284 4.8653,-2.94329 4.64535,2.25196 3.38843,-1.5397 3.45129,-0.29852 3.5403,1.81728 3.33084,-0.0523 4.06927,-0.80129 4.69249,-1.04741 3.80217,2.07915 3.60317,2.21008 3.53507,2.17865 2.25197,4.20018 3.79169,1.80682 4.67155,-0.56562 2.85949,3.66079 3.92263,0.23033 3.96976,-0.91651 3.6503,2.48764 3.89643,-1.39831 3.84406,2.11057 3.81266,-1.72825 3.8336,-0.0786 3.88071,1.16264 3.79695,-0.65987 3.74455,-2.21531 3.85454,2.7233 3.72364,-0.12039 3.72361,-3.10563 3.72884,1.87491 3.69744,-1.18884 0.0941,0.27233 2.44576,3.21561 1.09458,3.54554 0.62322,3.75506 1.80156,3.27321 3.29941,1.11027 2.88567,1.64972 3.00614,2.18388 0.50799,5.2424 2.49289,3.29415 4.13736,2.72333 2.05295,3.37795 1.13124,3.92788 2.74427,2.24148 2.61331,2.24674 1.71257,2.91186 2.0739,4.05356 3.06899,3.20513 3.30464,2.92758 3.28892,3.29418 -1.0841,4.64535 2.48241,3.10039 0.53419,3.89643 1.76494,3.40414 0.33518,3.88597 4.24732,2.73379 -1.11553,4.23163 0.97414,3.67124 -2.6762,5.59329 4.3154,3.7079 -0.69652,5.11668 2.51906,2.74428 1.35642,3.18419 -0.62321,3.92785 0.47134,1.36168 -0.54465,1.40879 1.23071,3.948797 -0.72272,3.723637 0.53419,4.006419 -0.80651,3.618873 -1.31977,3.576963 -0.0627,3.734094 1.00553,1.125983 -0.24615,0.256612 -0.53417,4.16355 1.9901,4.263032 -2.58714,3.854543 1.0003,3.802176 2.11058,3.487939 -1.23075,4.24209 2.54526,3.267982 -0.81175,4.310171 2.82804,3.084707 1.27263,3.618847 0.10485,4.053559 0.15177,0.282809 -0.0367,0.75415 1.07887,4.310171 1.42451,4.174035 1.22026,4.493472 -3.24704,3.498397 0.62321,3.922625 -1.47164,3.6502999 -0.15177,3.8283728 -1.63398,3.5455366 2.33576,4.4777595 -3.06897,3.1213625 -0.9741,3.6712415 -5.09575,3.5350792 1.9063,5.357587 -3.13705,4.09547 0.82749,3.634586 -0.40326,3.4408 -2.48243,3.100394 -0.62322,3.273211 -0.0314,4.147838 0.089,4.807708 -2.80189,3.309867 -2.8909,3.08468 -2.84378,3.021855 -4.56678,1.366882 -2.52432,3.351777 -0.38232,4.692488 -4.16352,2.063434 -1.01602,3.796946 0.0161,0.612732 -2.3829,1.089328 -2.69713,2.587169 -0.21479,3.477455 -0.84317,3.215615 -1.325,3.466998 -4.92815,1.85919 -2.53478,3.262754 -1.55544,4.702945 -2.72333,2.859495 -3.4984,2.115803 -1.45593,3.231328 -1.48736,3.10562 -2.36718,2.4091 -3.37798,3.05851 -2.29387,3.79692 -1.96393,3.95405 -2.33053,4.03262 -4.7658,0.15713 -2.34624,3.20513 -3.62413,1.52927 -2.82804,2.59237 -3.66601,1.33025 -1.5345,4.81294 -4.37825,0.0214 -3.29418,1.89584 -6.09603,-1.12598 -1.20455,2.50861 -1.31977,-0.15714 -3.79694,-1.73871 -4.01688,0.97934 -3.6765,-0.94794 -4.03259,0.28281 -3.56127,-1.0317 -3.48271,-1.5345 -3.72884,-0.29327 -2.73379,2.15246 -2.96423,1.5083 -3.47223,1.31454 -4.66632,-2.44575 -4.12164,0.27232 -4.54584,1.96916 -3.94879,-0.13622 -3.90694,-1.20978 -3.37795,1.06313 -3.31512,0.95317 -3.36749,-0.16223 -4.53013,-0.49231 -4.36779,0.81178 -4.25781,1.15741 -4.55632,0.94268 -3.28893,-3.45652 -3.95405,0.37707 -3.55079,-1.69161 -3.81263,-0.38754 -3.43557,-1.85394 -4.61395,2.05295 -2.92755,-3.25749 -3.60316,-1.19932 -3.21562,-5.3 -5.46235,1.5659 -3.89645,-3.3832 -3.67647,0.60227 -3.4094,-0.61796 -2.94326,-2.67096 -3.2261,-0.82223 -4.14258,-0.28804 -4.79723,-0.20942 -3.13182,-3.00089 -2.90138,-3.07419 -2.84378,-3.02709 -1.07884,-4.64012 -3.18942,-2.73379 -4.65583,-0.67035 -1.8016,-4.27875 -3.72883,-1.251683 -4.0745,-0.151769 -2.87521,-3.351777 -4.12687,0.335178 -3.15802,-3.04277 -4.1321,0.675584 -3.71838,-0.921739 -3.44605,-2.136771 -1.9901,-0.183409 -1.52927,-2.765216 -2.87518,-2.534775 -1.7178,-3.503652 -4.94387,-1.015991 -0.48705,-4.346853 -2.23626,-3.074196 0.47134,-6.185074 -5.35761,-1.901101 -1.199292,-5.017181 -3.34132,-1.649718 -2.414325,-2.482407 -0.837944,-3.88597 -2.147229,-2.550487 -3.199901,-2.639511 -3.781234,-2.964231 -0.801262,-4.263059 -0.576104,-4.189721 -0.549906,-4.111155 1.822536,-4.40445 -1.005533,-4.0745 -3.393661,-3.257499 1.021246,-4.530127 -2.309589,-3.184189 -3.220843,-2.4928904 -0.387572,-4.3992207 -3.137049,-1.8749036 0.204324,-1.6811173 -1.466389,-3.7812335 -0.256612,-4.1740081 -2.754758,-3.0846806 -0.885084,-3.6869548 -2.147229,-3.425087 -0.764607,-3.629358 -0.28281,-3.796919 -1.492586,-3.430343 -3.184188,-1.403563 -2.723333,-1.906304 -2.796642,-2.445751 -0.03137,-5.268591 -2.178655,-3.508882 -3.875512,-3.089909 -1.733485,-3.545563 -0.769863,-4.016904 -2.529546,-2.482406 -2.398601,-2.477178 -1.440219,-3.053255 -1.691601,-4.226376 -2.770445,-3.472226 -3.021855,-3.210386 -2.974689,-3.582218 1.503071,-4.530128 -2.194368,-3.309866 -0.172952,-3.93311 -1.450676,-3.545563 0.02145,-3.906912 -3.980249,-3.105622 1.497842,-4.111152 -0.6337,-3.74458 3.168475,-5.33142 -3.954051,-4.08498 1.157409,-5.02767 -2.257194,-2.96423 -1.063157,-3.29415 0.979362,-3.85455 -0.544677,-2.23628 0.597045,-2.27813 2.550488,-3.0166 3.362235,-2.3253 1.251687,-3.3099 1.304056,-3.19464 2.210081,-2.55052 3.184189,-3.25227 2.063434,-3.93308 1.723028,-4.06404 2.079147,-4.16353 4.750074,-0.45039 2.147229,-3.34132 3.524621,-1.74397 2.665709,-2.75473 3.576963,-1.55544 1.241203,-4.89674 4.367794,-0.28803 3.168475,-2.08964 6.153649,0.75415 2.147228,-5.26856 5.069576,-0.96888 1.801567,-3.2575 2.58717,-2.29913 3.922625,-0.65987 2.644766,-2.03201 2.780929,-3.07422 3.137049,-3.64504 4.294458,-0.60228 4.210663,-0.38232 4.132124,-0.36134 4.3154,2.02152 4.11641,-0.817 3.40937,-3.24702 4.47779,1.23072 3.28892,-2.16294 1.28835,-1.51878 0.35612,0.13085 4.0169,-0.58656 4.12164,0.68607 3.6241,-1.99536 3.79169,-0.0418 3.81789,-1.32499 3.71313,0.0681 3.76029,0.57084 3.67647,-0.68607 2.07915,-2.79141 2.46669,-2.23102 3.01137,-2.17343 5.14289,1.14695 3.90691,-1.34071 3.87548,-3.08993 3.84409,-0.89555 4.09021,0.14668 2.97995,-1.91156 2.95374,-1.78065 3.29416,-0.72273 4.49873,-0.70701 4.00642,-1.92204 3.8074,-2.23102 z"
   sodipodi:nodetypes="cccccccccccccccccccccccccccccccccccccccccccccccccccccccccccccccccccccccccccccccccccccccccccccccccccccccccccccccccccccccccccccccccccccccccccccccccccccccccccccccccccccccccccccccccccccccccccccccccccccccccccccccccccccccccccccccccccccccccccccccccccccccccccccccccccccccccccccccccccccccccccccccccccccccccccccccccccccccccccccccccccccccccccccccccccccc" />
	
	
	
	
	
	
	
	
	
	
	
	
	
	
	
	
	
	
	
	
	
	
	
	
	
</g></g></svg>
